<?xml version="1.0" encoding="UTF-8"?>
<svg xmlns="http://www.w3.org/2000/svg" xmlns:xlink="http://www.w3.org/1999/xlink" width="283.63pt" height="236.24pt" viewBox="0 0 283.63 236.24" version="1.1">
<defs>
<clipPath id="clip1">
  <path d="M 0 210 L 26 210 L 26 236.238281 L 0 236.238281 Z M 0 210 "/>
</clipPath>
<clipPath id="clip2">
  <path d="M 268 205 L 283.628906 205 L 283.628906 229 L 268 229 Z M 268 205 "/>
</clipPath>
</defs>
<g id="surface1">
<path style=" stroke:none;fill-rule:nonzero;fill:rgb(0%,66.992188%,77.34375%);fill-opacity:1;" d="M 63.597656 115.933594 L 100.226563 151.261719 L 141.816406 151.261719 L 84.398438 95.890625 L 141.816406 40.53125 L 100.226563 40.53125 L 63.597656 75.84375 L 42.820313 95.890625 "/>
<path style=" stroke:none;fill-rule:nonzero;fill:rgb(96.09375%,50.976563%,12.547302%);fill-opacity:1;" d="M 226.671875 122.335938 L 226.671875 69.441406 L 199.355469 95.835938 L 199.371094 95.851563 L 199.359375 95.863281 "/>
<path style=" stroke:none;fill-rule:nonzero;fill:rgb(92.96875%,5.883789%,41.184998%);fill-opacity:1;" d="M 141.816406 0 L 141.816406 40.285156 L 188.496094 85.492188 L 198.480469 75.84375 L 209.324219 65.421875 "/>
<path style=" stroke:none;fill-rule:nonzero;fill:rgb(69.726563%,82.03125%,20.776367%);fill-opacity:1;" d="M 141.816406 191.789063 L 141.816406 151.503906 L 188.496094 106.273438 L 198.480469 115.921875 L 209.324219 126.355469 "/>
<g clip-path="url(#clip1)" clip-rule="nonzero">
<path style=" stroke:none;fill-rule:nonzero;fill:rgb(0%,8.616638%,14.892578%);fill-opacity:1;" d="M 3.929688 225.398438 L 16.972656 225.398438 C 20.429688 225.398438 21.378906 224.382813 21.378906 221.265625 L 21.378906 217.914063 C 21.378906 214.796875 20.429688 213.777344 16.972656 213.777344 L 8.332031 213.777344 C 4.914063 213.777344 3.929688 214.796875 3.929688 217.914063 Z M 17.347656 210.425781 C 23.375 210.425781 25.308594 212.355469 25.308594 217.167969 L 25.308594 222.011719 C 25.308594 226.855469 23.375 228.753906 17.347656 228.753906 L 3.929688 228.753906 L 3.929688 235.628906 C 3.929688 236.039063 3.726563 236.238281 3.320313 236.238281 L 0.609375 236.238281 C 0.203125 236.238281 0 236.039063 0 235.628906 L 0 217.167969 C 0 212.355469 1.929688 210.425781 7.960938 210.425781 "/>
</g>
<path style=" stroke:none;fill-rule:nonzero;fill:rgb(0%,8.616638%,14.892578%);fill-opacity:1;" d="M 46.859375 210.425781 C 47.199219 210.425781 47.367188 210.59375 47.367188 210.933594 L 47.367188 213.269531 C 47.367188 213.609375 47.199219 213.777344 46.859375 213.777344 L 37.746094 213.777344 C 34.324219 213.777344 33.339844 214.796875 33.339844 217.910156 L 33.339844 228.144531 C 33.339844 228.550781 33.136719 228.753906 32.730469 228.753906 L 30.019531 228.753906 C 29.613281 228.753906 29.410156 228.550781 29.410156 228.144531 L 29.410156 217.167969 C 29.410156 212.355469 31.34375 210.425781 37.371094 210.425781 "/>
<path style=" stroke:none;fill-rule:nonzero;fill:rgb(0%,8.616638%,14.892578%);fill-opacity:1;" d="M 53.910156 221.332031 C 53.910156 224.449219 54.890625 225.5 58.3125 225.5 L 67.050781 225.5 C 70.507813 225.5 71.457031 224.449219 71.457031 221.332031 L 71.457031 217.84375 C 71.457031 214.695313 70.507813 213.675781 67.050781 213.675781 L 58.3125 213.675781 C 54.890625 213.675781 53.910156 214.695313 53.910156 217.84375 Z M 67.425781 210.425781 C 73.457031 210.425781 75.386719 212.320313 75.386719 217.167969 L 75.386719 222.011719 C 75.386719 226.824219 73.457031 228.753906 67.425781 228.753906 L 57.941406 228.753906 C 51.910156 228.753906 49.976563 226.824219 49.976563 222.011719 L 49.976563 217.167969 C 49.976563 212.320313 51.910156 210.425781 57.941406 210.425781 "/>
<path style=" stroke:none;fill-rule:nonzero;fill:rgb(0%,8.616638%,14.892578%);fill-opacity:1;" d="M 81.320313 210.425781 L 81.320313 205.886719 C 81.320313 205.445313 81.523438 205.242188 81.929688 205.242188 L 84.640625 205.242188 C 85.046875 205.242188 85.25 205.445313 85.25 205.886719 L 85.25 210.425781 L 91.820313 210.425781 C 92.160156 210.425781 92.332031 210.59375 92.332031 210.933594 L 92.332031 213.203125 C 92.332031 213.542969 92.160156 213.710938 91.820313 213.710938 L 85.25 213.710938 L 85.25 222.113281 C 85.25 224.449219 85.996094 225.46875 88.738281 225.46875 L 92.027344 225.46875 C 92.363281 225.46875 92.535156 225.636719 92.535156 225.976563 L 92.535156 228.242188 C 92.535156 228.582031 92.363281 228.753906 92.027344 228.753906 L 88.09375 228.753906 C 82.742188 228.753906 81.320313 226.820313 81.320313 222.113281 L 81.320313 213.710938 L 78.035156 213.710938 C 77.695313 213.710938 77.527344 213.542969 77.527344 213.203125 L 77.527344 210.933594 C 77.527344 210.59375 77.695313 210.425781 78.035156 210.425781 "/>
<path style=" stroke:none;fill-rule:nonzero;fill:rgb(0%,8.616638%,14.892578%);fill-opacity:1;" d="M 99.074219 221.332031 C 99.074219 224.449219 100.054688 225.5 103.476563 225.5 L 112.21875 225.5 C 115.675781 225.5 116.621094 224.449219 116.621094 221.332031 L 116.621094 217.84375 C 116.621094 214.695313 115.675781 213.675781 112.21875 213.675781 L 103.476563 213.675781 C 100.054688 213.675781 99.074219 214.695313 99.074219 217.84375 Z M 112.589844 210.425781 C 118.621094 210.425781 120.554688 212.320313 120.554688 217.167969 L 120.554688 222.011719 C 120.554688 226.824219 118.621094 228.753906 112.589844 228.753906 L 103.105469 228.753906 C 97.074219 228.753906 95.144531 226.824219 95.144531 222.011719 L 95.144531 217.167969 C 95.144531 212.320313 97.074219 210.425781 103.105469 210.425781 "/>
<path style=" stroke:none;fill-rule:nonzero;fill:rgb(0%,8.616638%,14.892578%);fill-opacity:1;" d="M 128.585938 213.777344 L 128.585938 221.265625 C 128.585938 224.382813 129.566406 225.398438 132.988281 225.398438 L 141.628906 225.398438 C 145.085938 225.398438 146.03125 224.382813 146.03125 221.265625 L 146.03125 217.910156 C 146.03125 214.796875 145.085938 213.777344 141.628906 213.777344 Z M 127.976563 203.34375 C 128.382813 203.34375 128.585938 203.546875 128.585938 203.953125 L 128.585938 210.425781 L 142 210.425781 C 148.03125 210.425781 149.960938 212.320313 149.960938 217.167969 L 149.960938 222.011719 C 149.960938 226.820313 148.03125 228.753906 142 228.753906 L 132.617188 228.753906 C 126.585938 228.753906 124.65625 226.820313 124.65625 222.011719 L 124.65625 203.953125 C 124.65625 203.546875 124.859375 203.34375 125.265625 203.34375 "/>
<path style=" stroke:none;fill-rule:nonzero;fill:rgb(0%,8.616638%,14.892578%);fill-opacity:1;" d="M 157.386719 210.425781 C 157.792969 210.425781 157.996094 210.628906 157.996094 211.035156 L 157.996094 221.097656 C 157.996094 224.179688 158.808594 225.230469 162.230469 225.230469 L 171.003906 225.230469 C 174.460938 225.230469 175.410156 224.179688 175.410156 221.097656 L 175.410156 211.035156 C 175.410156 210.628906 175.613281 210.425781 176.019531 210.425781 L 178.730469 210.425781 C 179.136719 210.425781 179.339844 210.628906 179.339844 211.035156 L 179.339844 222.011719 C 179.339844 226.820313 177.410156 228.753906 171.378906 228.753906 L 162.027344 228.753906 C 155.996094 228.753906 154.066406 226.820313 154.066406 222.011719 L 154.066406 211.035156 C 154.066406 210.628906 154.269531 210.425781 154.675781 210.425781 "/>
<path style=" stroke:none;fill-rule:nonzero;fill:rgb(0%,8.616638%,14.892578%);fill-opacity:1;" d="M 185.949219 210.425781 L 185.949219 209.511719 C 185.949219 204.765625 187.371094 202.835938 192.726563 202.835938 L 196.65625 202.835938 C 196.992188 202.835938 197.164063 203.007813 197.164063 203.34375 L 197.164063 205.613281 C 197.164063 205.953125 196.992188 206.121094 196.65625 206.121094 L 193.367188 206.121094 C 190.660156 206.121094 189.914063 207.171875 189.914063 209.511719 L 189.914063 210.425781 L 196.453125 210.425781 C 196.789063 210.425781 196.960938 210.59375 196.960938 210.933594 L 196.960938 213.203125 C 196.960938 213.542969 196.789063 213.710938 196.453125 213.710938 L 189.914063 213.710938 L 189.914063 228.144531 C 189.914063 228.550781 189.710938 228.753906 189.269531 228.753906 L 186.59375 228.753906 C 186.152344 228.753906 185.949219 228.550781 185.949219 228.144531 L 185.949219 213.710938 L 182.664063 213.710938 C 182.324219 213.710938 182.15625 213.542969 182.15625 213.203125 L 182.15625 210.933594 C 182.15625 210.59375 182.324219 210.425781 182.664063 210.425781 "/>
<path style=" stroke:none;fill-rule:nonzero;fill:rgb(0%,8.616638%,14.892578%);fill-opacity:1;" d="M 206.914063 218.066406 C 207.253906 218.066406 207.425781 218.234375 207.425781 218.574219 L 207.425781 220.605469 C 207.425781 220.945313 207.253906 221.113281 206.914063 221.113281 L 198.582031 221.113281 C 198.242188 221.113281 198.070313 220.945313 198.070313 220.605469 L 198.070313 218.574219 C 198.070313 218.234375 198.242188 218.066406 198.582031 218.066406 "/>
<path style=" stroke:none;fill-rule:nonzero;fill:rgb(0%,8.616638%,14.892578%);fill-opacity:1;" d="M 231.214844 210.425781 C 237.246094 210.425781 239.175781 212.355469 239.175781 217.167969 L 239.175781 228.144531 C 239.175781 228.550781 238.972656 228.753906 238.566406 228.753906 L 235.859375 228.753906 C 235.449219 228.753906 235.246094 228.550781 235.246094 228.144531 L 235.246094 218.082031 C 235.246094 215 234.46875 213.949219 231.011719 213.949219 L 221.964844 213.949219 C 218.546875 213.949219 217.5625 215 217.5625 218.082031 L 217.5625 228.144531 C 217.5625 228.550781 217.359375 228.753906 216.953125 228.753906 L 214.242188 228.753906 C 213.835938 228.753906 213.632813 228.550781 213.632813 228.144531 L 213.632813 217.167969 C 213.632813 212.355469 215.5625 210.425781 221.59375 210.425781 "/>
<path style=" stroke:none;fill-rule:nonzero;fill:rgb(0%,8.616638%,14.892578%);fill-opacity:1;" d="M 246.703125 218.285156 L 261.8125 218.285156 C 262.285156 218.285156 262.523438 218.117188 262.523438 217.574219 L 262.523438 216.015625 C 262.523438 214.183594 261.914063 213.507813 259.847656 213.507813 L 251.140625 213.507813 C 247.683594 213.507813 246.703125 214.523438 246.703125 217.097656 Z M 260.59375 210.425781 C 265.164063 210.425781 266.386719 211.847656 266.386719 215.878906 L 266.386719 218.894531 C 266.386719 220.316406 265.773438 220.789063 264.453125 220.789063 L 246.703125 220.789063 L 246.703125 221.84375 C 246.703125 224.382813 247.683594 225.398438 251.140625 225.398438 L 265.300781 225.398438 C 265.640625 225.398438 265.808594 225.570313 265.808594 225.90625 L 265.808594 228.242188 C 265.808594 228.582031 265.640625 228.753906 265.300781 228.753906 L 250.765625 228.753906 C 244.703125 228.753906 242.773438 226.824219 242.773438 222.011719 L 242.773438 217.167969 C 242.773438 212.320313 244.703125 210.425781 250.765625 210.425781 "/>
<g clip-path="url(#clip2)" clip-rule="nonzero">
<path style=" stroke:none;fill-rule:nonzero;fill:rgb(0%,8.616638%,14.892578%);fill-opacity:1;" d="M 272.421875 210.425781 L 272.421875 205.886719 C 272.421875 205.445313 272.625 205.242188 273.027344 205.242188 L 275.738281 205.242188 C 276.144531 205.242188 276.351563 205.445313 276.351563 205.886719 L 276.351563 210.425781 L 282.921875 210.425781 C 283.261719 210.425781 283.429688 210.59375 283.429688 210.933594 L 283.429688 213.203125 C 283.429688 213.542969 283.261719 213.710938 282.921875 213.710938 L 276.351563 213.710938 L 276.351563 222.113281 C 276.351563 224.449219 277.09375 225.46875 279.839844 225.46875 L 283.125 225.46875 C 283.464844 225.46875 283.632813 225.636719 283.632813 225.976563 L 283.632813 228.242188 C 283.632813 228.582031 283.464844 228.753906 283.125 228.753906 L 279.195313 228.753906 C 273.84375 228.753906 272.421875 226.820313 272.421875 222.113281 L 272.421875 213.710938 L 269.132813 213.710938 C 268.796875 213.710938 268.625 213.542969 268.625 213.203125 L 268.625 210.933594 C 268.625 210.59375 268.796875 210.425781 269.132813 210.425781 "/>
</g>
</g>
</svg>
